<svg width="319" height="139" viewBox="0 0 319 139" fill="none" xmlns="http://www.w3.org/2000/svg">
<path d="M25.735 61.8793C22.7576 65.6526 18.5332 84.0064 39.3593 99.2071C50.0618 107.015 63.8468 108.529 76.8985 105.713C89.9502 102.897 100.688 96.0321 107.349 88.0853C117.602 75.846 125.332 53.2423 101.199 38.8221C76.5192 24.0759 52.4402 48.7844 42.5531 54.5506C30.6441 61.5052 37.8444 57.8388 25.735 61.8793Z" fill="url(#paint0_radial_4_83)" stroke="black" stroke-width="0.00666667"/>
<path d="M122.444 28.7562C121.559 31.9689 123.468 33.8824 121.039 38.0576C118.61 42.2327 112.027 46.6611 113.647 43.8759C114.096 39.8763 112.623 38.7497 115.053 34.5746C117.482 30.3994 122.394 28.9496 122.444 28.7562Z" fill="#06C630"/>
<path d="M130.12 46.0409C127.191 46.7278 126.619 48.545 122.197 48.6994C117.776 48.8538 111.159 46.703 114.108 46.6C117.44 45.367 117.61 44.0959 122.031 43.9415C126.453 43.7871 129.945 46.0839 130.12 46.0409Z" fill="#06C630"/>
<path d="M29.548 72.0641C29.548 70.0481 29.956 68.2841 30.772 66.7721C31.588 65.2361 32.704 64.0481 34.12 63.2081C35.56 62.3681 37.156 61.9481 38.908 61.9481C40.636 61.9481 42.136 62.3201 43.408 63.0641C44.68 63.8081 45.628 64.7441 46.252 65.8721L46.252 62.2721L49.564 62.2721L49.564 82.0001L46.252 82.0001L46.252 78.3281C45.604 79.4801 44.632 80.4401 43.336 81.2081C42.064 81.9521 40.576 82.3241 38.872 82.3241C37.12 82.3241 35.536 81.8921 34.12 81.0281C32.704 80.1641 31.588 78.9521 30.772 77.3921C29.956 75.8321 29.548 74.0561 29.548 72.0641ZM46.252 72.1001C46.252 70.6121 45.952 69.3161 45.352 68.2121C44.752 67.1081 43.936 66.2681 42.904 65.6921C41.896 65.0921 40.78 64.7921 39.556 64.7921C38.332 64.7921 37.216 65.0801 36.208 65.6561C35.2 66.2321 34.396 67.0721 33.796 68.1761C33.196 69.2801 32.896 70.5761 32.896 72.0641C32.896 73.5761 33.196 74.8961 33.796 76.0241C34.396 77.1281 35.2 77.9801 36.208 78.5801C37.216 79.1561 38.332 79.4441 39.556 79.4441C40.78 79.4441 41.896 79.1561 42.904 78.5801C43.936 77.9801 44.752 77.1281 45.352 76.0241C45.952 74.8961 46.252 73.5881 46.252 72.1001ZM53.8761 72.0641C53.8761 70.0481 54.2841 68.2841 55.1001 66.7721C55.9161 65.2361 57.0321 64.0481 58.4481 63.2081C59.8881 62.3681 61.4841 61.9481 63.2361 61.9481C64.9641 61.9481 66.4641 62.3201 67.7361 63.0641C69.0081 63.8081 69.9561 64.7441 70.5801 65.8721L70.5801 62.2721L73.8921 62.2721L73.8921 82.0001L70.5801 82.0001L70.5801 78.3281C69.9321 79.4801 68.9601 80.4401 67.6641 81.2081C66.3921 81.9521 64.9041 82.3241 63.2001 82.3241C61.4481 82.3241 59.8641 81.8921 58.4481 81.0281C57.0321 80.1641 55.9161 78.9521 55.1001 77.3921C54.2841 75.8321 53.8761 74.0561 53.8761 72.0641ZM70.5801 72.1001C70.5801 70.6121 70.2801 69.3161 69.6801 68.2121C69.0801 67.1081 68.2641 66.2681 67.2321 65.6921C66.2241 65.0921 65.1081 64.7921 63.8841 64.7921C62.6601 64.7921 61.5441 65.0801 60.5361 65.6561C59.5281 66.2321 58.7241 67.0721 58.1241 68.1761C57.5241 69.2801 57.2241 70.5761 57.2241 72.0641C57.2241 73.5761 57.5241 74.8961 58.1241 76.0241C58.7241 77.1281 59.5281 77.9801 60.5361 78.5801C61.5441 79.1561 62.6601 79.4441 63.8841 79.4441C65.1081 79.4441 66.2241 79.1561 67.2321 78.5801C68.2641 77.9801 69.0801 77.1281 69.6801 76.0241C70.2801 74.8961 70.5801 73.5881 70.5801 72.1001ZM103.152 61.9121C104.688 61.9121 106.056 62.2361 107.256 62.8841C108.456 63.5081 109.404 64.4561 110.1 65.7281C110.796 67.0001 111.144 68.5481 111.144 70.3721L111.144 82.0001L107.904 82.0001L107.904 70.8401C107.904 68.8721 107.412 67.3721 106.428 66.3401C105.468 65.2841 104.16 64.7561 102.504 64.7561C100.8 64.7561 99.4443 65.3081 98.4363 66.4121C97.4283 67.4921 96.9243 69.0641 96.9243 71.1281L96.9243 82.0001L93.6843 82.0001L93.6843 70.8401C93.6843 68.8721 93.1923 67.3721 92.2083 66.3401C91.2483 65.2841 89.9403 64.7561 88.2843 64.7561C86.5803 64.7561 85.2243 65.3081 84.2163 66.4121C83.2083 67.4921 82.7043 69.0641 82.7043 71.1281L82.7043 82.0001L79.4283 82.0001L79.4283 62.2721L82.7043 62.2721L82.7043 65.1161C83.3523 64.0841 84.2163 63.2921 85.2963 62.7401C86.4003 62.1881 87.6123 61.9121 88.9323 61.9121C90.5883 61.9121 92.0523 62.2841 93.3243 63.0281C94.5963 63.7721 95.5443 64.8641 96.1683 66.3041C96.7203 64.9121 97.6323 63.8321 98.9043 63.0641C100.176 62.2961 101.592 61.9121 103.152 61.9121Z" fill="white"/>
<path d="M166.466 71.7007C166.466 69.6847 166.874 67.9207 167.69 66.4087C168.506 64.8727 169.622 63.6847 171.038 62.8447C172.478 62.0047 174.074 61.5847 175.826 61.5847C177.554 61.5847 179.054 61.9567 180.326 62.7007C181.598 63.4447 182.546 64.3807 183.17 65.5087L183.17 61.9087L186.482 61.9087L186.482 81.6367L183.17 81.6367L183.17 77.9647C182.522 79.1167 181.55 80.0767 180.254 80.8447C178.982 81.5887 177.494 81.9607 175.79 81.9607C174.038 81.9607 172.454 81.5287 171.038 80.6647C169.622 79.8007 168.506 78.5887 167.69 77.0287C166.874 75.4687 166.466 73.6927 166.466 71.7007ZM183.17 71.7367C183.17 70.2487 182.87 68.9527 182.27 67.8487C181.67 66.7447 180.854 65.9047 179.822 65.3287C178.814 64.7287 177.698 64.4287 176.474 64.4287C175.25 64.4287 174.134 64.7167 173.126 65.2927C172.118 65.8687 171.314 66.7087 170.714 67.8127C170.114 68.9167 169.814 70.2127 169.814 71.7007C169.814 73.2127 170.114 74.5327 170.714 75.6607C171.314 76.7647 172.118 77.6167 173.126 78.2167C174.134 78.7927 175.25 79.0807 176.474 79.0807C177.698 79.0807 178.814 78.7927 179.822 78.2167C180.854 77.6167 181.67 76.7647 182.27 75.6607C182.87 74.5327 183.17 73.2247 183.17 71.7367ZM219.587 71.7007C219.587 69.6847 219.995 67.9207 220.811 66.4087C221.627 64.8727 222.743 63.6847 224.159 62.8447C225.599 62.0047 227.195 61.5847 228.947 61.5847C230.675 61.5847 232.175 61.9567 233.447 62.7007C234.719 63.4447 235.667 64.3807 236.291 65.5087L236.291 61.9087L239.603 61.9087L239.603 81.6367L236.291 81.6367L236.291 77.9647C235.643 79.1167 234.671 80.0767 233.375 80.8447C232.103 81.5887 230.615 81.9607 228.911 81.9607C227.159 81.9607 225.575 81.5287 224.159 80.6647C222.743 79.8007 221.627 78.5887 220.811 77.0287C219.995 75.4687 219.587 73.6927 219.587 71.7007ZM236.291 71.7367C236.291 70.2487 235.991 68.9527 235.391 67.8487C234.791 66.7447 233.975 65.9047 232.943 65.3287C231.935 64.7287 230.819 64.4287 229.595 64.4287C228.371 64.4287 227.255 64.7167 226.247 65.2927C225.239 65.8687 224.435 66.7087 223.835 67.8127C223.235 68.9167 222.935 70.2127 222.935 71.7007C222.935 73.2127 223.235 74.5327 223.835 75.6607C224.435 76.7647 225.239 77.6167 226.247 78.2167C227.255 78.7927 228.371 79.0807 229.595 79.0807C230.819 79.0807 231.935 78.7927 232.943 78.2167C233.975 77.6167 234.791 76.7647 235.391 75.6607C235.991 74.5327 236.291 73.2247 236.291 71.7367ZM243.915 71.7007C243.915 69.6847 244.323 67.9207 245.139 66.4087C245.955 64.8727 247.071 63.6847 248.487 62.8447C249.927 62.0047 251.523 61.5847 253.275 61.5847C255.003 61.5847 256.503 61.9567 257.775 62.7007C259.047 63.4447 259.995 64.3807 260.619 65.5087L260.619 61.9087L263.931 61.9087L263.931 81.6367L260.619 81.6367L260.619 77.9647C259.971 79.1167 258.999 80.0767 257.703 80.8447C256.431 81.5887 254.943 81.9607 253.239 81.9607C251.487 81.9607 249.903 81.5287 248.487 80.6647C247.071 79.8007 245.955 78.5887 245.139 77.0287C244.323 75.4687 243.915 73.6927 243.915 71.7007ZM260.619 71.7367C260.619 70.2487 260.319 68.9527 259.719 67.8487C259.119 66.7447 258.303 65.9047 257.271 65.3287C256.263 64.7287 255.147 64.4287 253.923 64.4287C252.699 64.4287 251.583 64.7167 250.575 65.2927C249.567 65.8687 248.763 66.7087 248.163 67.8127C247.563 68.9167 247.263 70.2127 247.263 71.7007C247.263 73.2127 247.563 74.5327 248.163 75.6607C248.763 76.7647 249.567 77.6167 250.575 78.2167C251.583 78.7927 252.699 79.0807 253.923 79.0807C255.147 79.0807 256.263 78.7927 257.271 78.2167C258.303 77.6167 259.119 76.7647 259.719 75.6607C260.319 74.5327 260.619 73.2247 260.619 71.7367ZM272.743 65.1127C273.319 63.9847 274.135 63.1087 275.191 62.4847C276.271 61.8607 277.579 61.5487 279.115 61.5487L279.115 64.9327L278.251 64.9327C274.579 64.9327 272.743 66.9247 272.743 70.9087L272.743 81.6367L269.467 81.6367L269.467 61.9087L272.743 61.9087L272.743 65.1127Z" fill="#06C630"/>
<path d="M122.372 65.5807C123.044 64.4047 124.028 63.4447 125.324 62.7007C126.62 61.9567 128.096 61.5847 129.752 61.5847C131.528 61.5847 133.124 62.0047 134.54 62.8447C135.956 63.6847 137.072 64.8727 137.888 66.4087C138.704 67.9207 139.112 69.6847 139.112 71.7007C139.112 73.6927 138.704 75.4687 137.888 77.0287C137.072 78.5887 135.944 79.8007 134.504 80.6647C133.088 81.5287 131.504 81.9607 129.752 81.9607C128.048 81.9607 126.548 81.5887 125.252 80.8447C123.98 80.1007 123.02 79.1527 122.372 78.0007L122.372 81.6367L119.096 81.6367L119.096 54.9967L122.372 54.9967L122.372 65.5807ZM135.764 71.7007C135.764 70.2127 135.464 68.9167 134.864 67.8127C134.264 66.7087 133.448 65.8687 132.416 65.2927C131.408 64.7167 130.292 64.4287 129.068 64.4287C127.868 64.4287 126.752 64.7287 125.72 65.3287C124.712 65.9047 123.896 66.7567 123.272 67.8847C122.672 68.9887 122.372 70.2727 122.372 71.7367C122.372 73.2247 122.672 74.5327 123.272 75.6607C123.896 76.7647 124.712 77.6167 125.72 78.2167C126.752 78.7927 127.868 79.0807 129.068 79.0807C130.292 79.0807 131.408 78.7927 132.416 78.2167C133.448 77.6167 134.264 76.7647 134.864 75.6607C135.464 74.5327 135.764 73.2127 135.764 71.7007ZM142.2 71.7007C142.2 69.6847 142.608 67.9207 143.424 66.4087C144.24 64.8727 145.356 63.6847 146.772 62.8447C148.212 62.0047 149.808 61.5847 151.56 61.5847C153.288 61.5847 154.788 61.9567 156.06 62.7007C157.332 63.4447 158.28 64.3807 158.904 65.5087L158.904 61.9087L162.216 61.9087L162.216 81.6367L158.904 81.6367L158.904 77.9647C158.256 79.1167 157.284 80.0767 155.988 80.8447C154.716 81.5887 153.228 81.9607 151.524 81.9607C149.772 81.9607 148.188 81.5287 146.772 80.6647C145.356 79.8007 144.24 78.5887 143.424 77.0287C142.608 75.4687 142.2 73.6927 142.2 71.7007ZM158.904 71.7367C158.904 70.2487 158.604 68.9527 158.004 67.8487C157.404 66.7447 156.588 65.9047 155.556 65.3287C154.548 64.7287 153.432 64.4287 152.208 64.4287C150.984 64.4287 149.868 64.7167 148.86 65.2927C147.852 65.8687 147.048 66.7087 146.448 67.8127C145.848 68.9167 145.548 70.2127 145.548 71.7007C145.548 73.2127 145.848 74.5327 146.448 75.6607C147.048 76.7647 147.852 77.6167 148.86 78.2167C149.868 78.7927 150.984 79.0807 152.208 79.0807C153.432 79.0807 154.548 78.7927 155.556 78.2167C156.588 77.6167 157.404 76.7647 158.004 75.6607C158.604 74.5327 158.904 73.2247 158.904 71.7367Z" fill="url(#paint1_linear_4_83)"/>
<path d="M195.825 65.8807C195.776 66.8593 197.243 70.4073 202.499 70.4717C205.199 70.5041 207.668 69.1269 209.503 67.117C211.338 65.1071 212.311 62.698 212.479 60.591C212.736 57.3464 211.349 52.6783 205.636 53.1344C199.794 53.6008 198.714 60.5502 197.753 62.6762C196.596 65.2386 197.359 63.7788 195.825 65.8807Z" fill="url(#paint2_radial_4_83)"/>
<path d="M205.636 53.1311C208.493 52.903 210.269 53.9563 211.299 55.4727C212.263 56.8942 212.572 58.7226 212.501 60.2827L212.482 60.5914C212.314 62.6991 211.341 65.1089 209.505 67.1193C207.727 69.0667 205.354 70.4205 202.751 70.4737L202.498 70.4751C199.87 70.4428 198.188 69.5394 197.17 68.5214C196.661 68.0126 196.318 67.4749 196.105 67.0034C195.892 66.5319 195.809 66.1256 195.821 65.8803L195.824 65.8809L195.825 65.8807L195.821 65.8803L195.822 65.8782C196.206 65.3528 196.446 65.0501 196.608 64.8513C196.771 64.6525 196.856 64.5581 196.928 64.4493C197.001 64.3406 197.061 64.2171 197.176 63.9611C197.291 63.705 197.461 63.3156 197.75 62.6754L197.841 62.4616C198.054 61.9332 198.279 61.1907 198.565 60.3526C198.893 59.3948 199.301 58.312 199.861 57.2811C200.982 55.2192 202.714 53.3645 205.636 53.1311ZM205.637 53.1379C202.718 53.371 200.988 55.2234 199.867 57.2842C199.307 58.3146 198.899 59.3971 198.572 60.3547C198.285 61.1928 198.059 61.936 197.846 62.4648L197.756 62.6775C197.467 63.3179 197.297 63.7069 197.182 63.9633C197.067 64.2193 197.007 64.3433 196.934 64.4525C196.861 64.5617 196.776 64.6571 196.614 64.8555C196.452 65.0541 196.21 65.3558 195.827 65.8805L195.828 65.8813C195.816 66.1253 195.899 66.5299 196.112 67.0006C196.324 67.4714 196.667 68.0085 197.175 68.5168C198.192 69.5334 199.872 70.4359 202.499 70.4682L202.751 70.4668C205.352 70.4135 207.723 69.0614 209.501 67.1149C211.336 65.1055 212.308 62.6965 212.476 60.5902C212.604 58.9686 212.321 56.9919 211.293 55.4773C210.265 53.9628 208.492 52.9101 205.637 53.1379Z" fill="black"/>
<path d="M207.976 48.9522C208.209 49.5905 208.752 49.6827 208.842 50.6633C208.932 51.6439 208.361 53.1573 208.301 52.5032C207.903 51.7858 207.526 51.7726 207.436 50.792C207.346 49.8115 207.991 48.9903 207.976 48.9522Z" fill="#06C630"/>
<path d="M211.294 50.9165C210.888 51.3767 211.008 51.7461 210.292 52.2942C209.575 52.8423 208.222 53.2668 208.7 52.9012C209.108 52.3027 208.986 52.0715 209.702 51.5235C210.418 50.9754 211.27 50.9443 211.294 50.9165Z" fill="#06C630"/>
<path d="M195.968 86.0108C195.968 84.6688 194.926 83.6525 193.728 83.6524C192.529 83.6524 191.486 84.6687 191.486 86.0108C191.486 87.353 192.529 88.3702 193.728 88.3702C194.926 88.3701 195.968 87.3529 195.968 86.0108ZM216.912 86.0108C216.912 84.6687 215.869 83.6524 214.671 83.6524C213.473 83.6525 212.431 84.6688 212.431 86.0108C212.431 87.3529 213.472 88.3701 214.671 88.3702C215.869 88.3702 216.912 87.353 216.912 86.0108ZM193.408 73.9346L214.816 73.9346L217.79 59.5938L190.713 59.5938L193.408 73.9346ZM219.412 86.0108C219.412 88.6546 217.328 90.8702 214.671 90.8702C212.014 90.8701 209.931 88.6546 209.931 86.0108C209.931 85.1602 210.147 84.3547 210.528 83.6524L197.87 83.6524C198.251 84.3547 198.468 85.1603 198.468 86.0108C198.468 88.6545 196.385 90.8701 193.728 90.8702C191.07 90.8702 188.986 88.6546 188.986 86.0108C188.986 83.8771 190.344 82.0228 192.265 81.3868L187.426 55.6446C187.295 55.1121 186.849 54.7824 186.386 54.7823L175 54.7823L175 52.2823L186.386 52.2823C187.966 52.2824 189.313 53.33 189.784 54.7989L189.867 55.0977L189.873 55.1231L189.877 55.1485L188.65 55.378L188.64 55.3809L189.877 55.1485L190.242 57.0938L220.86 57.0938L216.852 76.4346L193.878 76.4346L194.765 81.1524L214.671 81.1524C217.328 81.1524 219.412 83.3671 219.412 86.0108Z" fill="url(#paint3_linear_4_83)"/>
<defs>
<radialGradient id="paint0_radial_4_83" cx="0" cy="0" r="1" gradientUnits="userSpaceOnUse" gradientTransform="translate(126.525 -19.1364) rotate(28.0188) scale(131.205 144.775)">
<stop offset="0.33" stop-color="#F82222"/>
<stop offset="0.6555" stop-color="#FB7D23"/>
<stop offset="0.696" stop-color="#FD9124"/>
<stop offset="0.739" stop-color="#FFA025"/>
<stop offset="0.793" stop-color="#FFB702"/>
<stop offset="0.839" stop-color="#FFC502"/>
<stop offset="0.883" stop-color="#FFC502"/>
<stop offset="0.925" stop-color="#FFC502"/>
<stop offset="0.962" stop-color="#FFC502"/>
</radialGradient>
<linearGradient id="paint1_linear_4_83" x1="116.324" y1="63.9147" x2="270.244" y2="63.9147" gradientUnits="userSpaceOnUse">
<stop offset="0.08" stop-color="#F94D22"/>
<stop offset="0.2" stop-color="#FFC502"/>
<stop offset="0.24" stop-color="#A2DB72"/>
<stop offset="0.25" stop-color="#44D464"/>
<stop offset="0.3" stop-color="#06C630"/>
</linearGradient>
<radialGradient id="paint2_radial_4_83" cx="0" cy="0" r="1" gradientUnits="userSpaceOnUse" gradientTransform="translate(202.995 40.5142) rotate(-7.40458) scale(26.7458 29.512)">
<stop offset="0.33" stop-color="#F82222"/>
<stop offset="0.6555" stop-color="#FB7D23"/>
<stop offset="0.696" stop-color="#FD9124"/>
<stop offset="0.739" stop-color="#FFA025"/>
<stop offset="0.793" stop-color="#FFB702"/>
<stop offset="0.839" stop-color="#FFC502"/>
<stop offset="0.883" stop-color="#FFC502"/>
<stop offset="0.925" stop-color="#FFC502"/>
<stop offset="0.962" stop-color="#FFC502"/>
</radialGradient>
<linearGradient id="paint3_linear_4_83" x1="200.709" y1="53.5323" x2="200.709" y2="89.6197" gradientUnits="userSpaceOnUse">
<stop stop-color="#F94322"/>
<stop offset="1" stop-color="#06C630"/>
</linearGradient>
</defs>
</svg>
